ply
format ascii 1.0
comment VCGLIB generated
element vertex 855
property float x
property float y
property float z
element face 1689
property list uchar int vertex_indices
end_header
28.3599 -26.4768 17.1434 
23.8095 -24.0946 17.9365 
23.7791 -24.6352 17.1256 
28.5661 -26.8345 16.2499 
31.5654 -27.5721 15.7333 
31.4881 -27.6235 15.1675 
33.9759 -27.7288 13.6986 
33.8305 -27.5257 13.2838 
35.0492 -27.3982 12.2077 
31.2426 -22.9124 9.22932 
31.7069 -24.6162 11.2824 
30.3799 -24.1044 9.79483 
27.8008 -24.7721 12.8376 
30.2199 -25.8262 13.2239 
31.6996 -26.4406 13.2409 
5.42068 -16.4968 24.1057 
5.62404 -17.3131 23.5802 
6.76238 -17.2963 24.0138 
8.82621 -18.3745 23.6507 
7.57695 -18.9582 22.877 
15.3192 -21.3126 21.8454 
11.6591 -19.6957 22.9205 
10.8175 -19.7543 22.7283 
14.0839 -22.229 20.6789 
10.3844 -20.2444 22.1196 
19.4567 -22.7214 20.0181 
18.0875 -23.9851 18.671 
22.0356 -24.8133 15.7144 
26.1045 -24.8565 11.5498 
29.898 -23.5763 7.38985 
33.3365 -20.478 1.36625 
34.179 -19.9045 2.0779 
35.3925 -17.5051 -2.56664 
33.6901 -17.9525 -3.26629 
35.5281 -15.8882 -5.05603 
33.6249 -15.9064 -5.63506 
35.244 -14.2535 -7.17727 
33.6197 -14.0448 -7.5339 
34.6865 -12.8796 -8.66067 
33.4595 -13.0793 -9.15066 
33.4711 -11.5934 -9.39834 
33.0199 -12.3914 -9.28573 
9.48968 -20.4206 21.5379 
10.1233 -21.0933 19.8374 
13.3023 -22.1241 18.919 
16.7348 -23.4023 17.1561 
20.6249 -24.4104 14.2122 
24.3294 -24.1944 10.7727 
28.6048 -23.2475 6.49479 
32.4431 -20.4902 0.898444 
8.00868 -20.2365 20.7759 
8.44713 -20.4845 19.7586 
7.30085 -19.4349 21.1353 
5.5755 -17.7886 21.6733 
4.32931 -16.0374 22.4235 
7.8003 -19.6944 20.332 
8.15489 -19.75 19.1144 
3.64077 -15.7935 21.9503 
0.614656 -13.2259 22.3638 
0.870698 -13.0691 21.8944 
3.6115 -15.2073 20.917 
3.69479 -14.6882 23.0845 
0.401073 -12.5319 23.0275 
0.227546 -12.7238 22.6572 
3.77512 -15.2153 22.761 
7.3359 -19.2756 20.2085 
6.41765 -18.7187 20.3073 
6.34056 -18.5452 20.0762 
5.33329 -17.9182 20.9698 
5.33177 -17.5162 20.4861 
3.6396 -15.0391 20.3904 
1.23586 -13.0736 21.3556 
5.26747 -16.768 19.4535 
6.27162 -18.4403 19.2241 
7.53313 -17.9205 17.2281 
5.10295 -16.4968 18.9073 
6.89622 -18.8248 19.1472 
7.51321 -19.4315 19.5062 
7.78946 -18.9978 17.7976 
1.25485 -13.0671 20.8193 
3.40178 -14.8393 19.9151 
6.5529 -17.3504 17.927 
4.81009 -14.26 18.0008 
7.62111 -15.2913 15.7996 
3.81525 -13.7072 19.5023 
3.3091 -14.5212 19.7419 
9.78382 -18.2706 13.9466 
9.7993 -16.9996 13.7045 
8.07186 -19.1974 17.4672 
11.2281 -20.7846 15.0405 
9.34161 -20.3956 18.0773 
10.2285 -21.0233 18.8728 
12.4759 -21.9197 16.8514 
15.0869 -22.8398 15.0302 
14.4764 -21.4695 12.6359 
18.802 -23.1263 11.6034 
18.0917 -22.061 10.1049 
22.6387 -23.3443 8.67567 
21.4768 -21.9301 7.14179 
26.5151 -22.7598 4.64054 
25.0989 -20.9724 3.20701 
30.0988 -20.2599 -0.188321 
28.457 -18.3968 -0.452442 
31.8829 -17.8526 -3.44655 
29.8918 -16.3843 -3.41509 
32.4154 -15.5156 -5.47686 
31.0805 -14.7856 -5.33974 
32.6522 -14.0894 -6.96895 
31.4964 -13.6753 -6.641 
32.3834 -13.4483 -9.33247 
12.9907 -18.5053 11.6848 
17.1353 -18.7496 8.863 
19.9717 -18.9264 6.35563 
23.6961 -18.2342 3.27183 
27.2964 -16.312 -0.167668 
29.0967 -14.3833 -3.14869 
30.3152 -13.6245 -4.89247 
31.0745 -12.3486 -7.16477 
31.0558 -12.255 -8.55646 
9.15546 -18.7709 9.15942 
9.06814 -18.4129 9.17746 
11.7527 -18.8699 8.69677 
12.1189 -18.7524 5.63627 
10.7767 -18.8202 6.28429 
9.45781 -18.9387 7.84819 
17.9786 -15.1058 10.281 
14.3182 -14.4274 12.7274 
24.4367 -15.227 4.39353 
28.1311 -14.758 0.239195 
30.2629 -12.9324 -4.42963 
31.2162 -11.8022 -6.97589 
8.87483 -13.4882 16.4671 
11.7669 -13.9756 14.4632 
6.04163 -12.8276 18.1626 
4.39416 -12.8276 19.7097 
1.43123 -12.6367 20.636 
1.95826 -11.976 20.7532 
0.248654 -11.9087 21.3444 
0.182827 -11.4195 21.6074 
28.456 -13.1613 -15.0734 
27.9106 -15.1172 -13.6879 
27.0228 -14.2727 -16.7852 
32.0344 -12.3444 -10.2606 
32.0538 -10.8709 -11.0566 
32.8002 -10.724 -10.0383 
32.1218 -9.98462 -11.6517 
32.4726 -10.0456 -10.7217 
31.8532 -13.7001 -9.63701 
0.312283 -12.0801 22.4508 
0.158445 -12.3407 22.2125 
-0.013093 -12.0673 21.7698 
0.0450602 -11.6625 22.0918 
9.43794 -18.6173 7.75399 
10.8028 -18.6225 6.27554 
33.4315 -26.0421 11.7458 
34.8663 -26.8423 11.5674 
21.3035 -15.3488 7.51382 
29.2886 -13.6278 -2.49874 
31.5075 -11.2107 -8.11341 
29.0458 -14.5031 -11.4769 
27.692 -14.9954 -13.6607 
29.4204 -14.7118 -11.5236 
30.9117 -10.6632 -12.6804 
11.3172 -19.5567 23.0385 
29.1378 -25.9452 16.8587 
24.5411 -23.4499 17.9369 
31.8218 -27.1045 15.5228 
33.9496 -27.3405 13.4106 
31.3087 -22.6596 10.7839 
30.7916 -24.9369 13.8327 
28.8955 -23.0693 14.0033 
32.0332 -25.9216 13.5962 
6.33819 -16.2021 24.3407 
8.88624 -16.9214 24.2712 
11.317 -18.9772 23.2603 
11.6937 -18.2077 23.5139 
15.798 -19.5624 22.5043 
20.1821 -20.7266 20.9016 
24.3449 -21.2209 18.1736 
28.6041 -20.9682 14.2116 
31.8024 -20.6138 9.41784 
34.4311 -18.7751 2.53194 
35.0706 -15.805 -1.79619 
34.744 -14.1656 -4.44341 
34.3572 -12.8974 -6.74845 
34.3639 -11.6724 -8.18756 
33.7106 -11.3169 -8.55018 
11.5843 -17.1621 23.7685 
13.1946 -16.3156 23.1079 
16.1111 -17.7547 21.9101 
19.7339 -18.7369 20.3498 
23.9811 -19.1895 17.7862 
27.5197 -19.2316 14.17 
31.2711 -19.0997 9.33418 
34.1573 -17.8237 2.72384 
11.8754 -15.1514 23.4094 
10.9843 -15.6075 23.9447 
9.87161 -15.4357 23.8729 
7.52771 -14.7518 23.7522 
5.28152 -14.5561 23.4375 
11.511 -14.5291 22.6883 
10.7047 -15.1762 23.4249 
4.95005 -13.7568 23.3446 
1.56142 -11.9946 22.6299 
1.30538 -12.1514 23.0994 
5.01638 -13.0218 22.4131 
4.25122 -14.4747 23.268 
0.608054 -12.1319 23.0624 
10.2159 -14.7954 23.2754 
9.22061 -14.065 23.1431 
9.27426 -14.2749 23.3493 
7.8094 -14.0663 23.6066 
7.76008 -13.7387 23.072 
5.1635 -12.6684 22.0132 
2.02124 -11.8519 22.192 
7.69578 -12.9905 22.0394 
9.50874 -13.4046 22.6713 
10.7946 -12.8469 20.7012 
7.67372 -12.4977 21.6448 
10.1577 -13.7512 22.6203 
10.7503 -14.3958 22.9534 
11.408 -13.3687 21.651 
2.27828 -11.475 21.9091 
5.11593 -12.1727 21.7405 
6.40522 -11.7786 19.6995 
9.52854 -12.7215 21.0957 
9.71577 -12.0328 18.0302 
4.76745 -12.2259 20.5163 
4.92766 -12.0034 21.4655 
13.8307 -11.9752 18.2561 
13.0842 -11.8895 17.2026 
11.8573 -13.3088 21.4983 
15.8467 -13.5999 19.9588 
13.1026 -14.5449 22.0824 
13.6569 -15.6901 22.5236 
16.475 -15.6987 21.11 
19.4197 -16.0998 19.6441 
19.2609 -14.0268 17.7308 
23.3015 -16.1268 16.3949 
22.8762 -14.6182 15.1999 
26.9714 -16.6043 13.2895 
26.071 -14.7833 12.0341 
30.6332 -16.3536 9.02587 
29.2883 -14.4554 7.66819 
33.1934 -15.4458 3.10716 
31.1234 -14.249 2.38694 
34.0732 -14.4454 -1.11416 
31.9387 -13.2002 -1.2354 
33.7247 -13.4789 -4.08262 
32.4132 -12.7124 -3.92055 
33.5809 -12.6446 -5.9799 
32.4964 -12.1196 -5.5761 
34.0975 -10.7817 -7.50708 
16.8473 -12.5059 15.7917 
20.6583 -13.2692 12.6146 
23.5424 -13.3717 10.1581 
26.6005 -13.7161 6.36471 
28.9149 -13.7941 1.55592 
30.0011 -12.9764 -2.18559 
30.9816 -12.5879 -4.18288 
31.5984 -11.5336 -6.60687 
32.1748 -10.5142 -7.36481 
16.0589 -8.03168 16.5109 
15.757 -8.00763 16.3004 
17.7996 -9.46328 15.136 
19.356 -7.49424 13.343 
16.9564 -7.27375 15.8334 
18.3465 -7.04448 14.3454 
2.16882 -11.4893 21.4215 
0.676958 -11.2424 21.8005 
35.1399 -1.64552 -8.14127 
34.7663 -4.4524 -6.38737 
34.3838 -3.93984 -8.7609 
33.5818 -9.93737 -8.61289 
32.9582 -9.46401 -10.0935 
32.6692 -9.13318 -11.0689 
34.1147 -10.1821 -7.22878 
0.515522 -11.7852 22.5928 
0.43958 -11.3631 22.2519 
18.2302 -7.06834 14.1849 
16.7697 -7.21183 15.5616 
34.5477 -4.33055 -6.36011 
33.9493 -6.87513 -6.25524 
34.3238 -7.08391 -6.30195 
32.9352 -7.51546 -10.5256 
-4.92583 -4.86264 16.8264 
-9.47615 -2.48041 17.6194 
-9.50658 -3.02104 16.8085 
-4.71951 -5.22037 15.9328 
-1.72036 -5.95791 15.4162 
-1.79759 -6.00933 14.8504 
0.690167 -6.11467 13.3816 
0.544837 -5.91153 12.9668 
1.76347 -5.78404 11.8907 
-2.04308 -1.2982 8.91228 
-1.57885 -3.00204 10.9653 
-2.90578 -2.49021 9.4778 
-5.48483 -3.15797 12.5205 
-3.0658 -4.21203 12.9069 
-1.58604 -4.82643 12.9238 
-26.7933 3.48678 25.1643 
-26.5899 2.70021 24.5953 
-25.4287 2.74898 24.9607 
-23.3494 1.77391 24.4324 
-24.6191 1.16716 23.7116 
-16.8662 -0.815731 22.1273 
-20.5156 0.60265 23.4824 
-21.3645 0.515652 23.3385 
-18.1328 -1.73932 21.0007 
-21.8139 0.030674 22.7375 
-12.7951 -1.97782 20.0019 
-14.1922 -3.24706 18.6892 
-11.2501 -3.19912 15.3974 
-7.18117 -3.24236 11.2328 
-3.38773 -1.96212 7.07281 
0.423069 -0.517399 3.11519 
1.16101 0.0437202 3.94314 
3.50961 0.924732 0.450656 
2.186 0.653934 -0.862627 
4.87476 1.51419 -1.69241 
3.59424 1.72409 -3.18926 
6.1252 2.14726 -3.79145 
5.15932 2.57629 -5.08826 
7.0383 2.75617 -5.53841 
6.28523 2.67044 -6.63982 
7.21312 3.76149 -7.17117 
6.39023 3.28859 -7.18451 
-22.7348 -0.161396 22.2036 
-22.1798 -0.742176 20.4427 
-19.0242 -1.60172 19.2961 
-15.6574 -2.66576 17.2821 
-12.6608 -2.79625 13.8952 
-8.95628 -2.58028 10.4556 
-4.68093 -1.63337 6.17776 
-0.290624 -0.479267 2.40507 
-24.2657 -0.0118904 21.5391 
-23.8808 -0.202633 20.4884 
-24.9819 0.7449 21.9719 
-26.7358 2.29494 22.6771 
-28.0031 3.96223 23.5698 
-24.5225 0.537205 21.1304 
-24.2411 0.542423 19.8926 
-28.7285 4.19423 23.1486 
-31.8243 6.61359 23.8441 
-31.6039 6.79861 23.3669 
-28.8444 4.81708 22.1432 
-28.6497 5.25747 24.3209 
-32.0246 7.27249 24.5466 
-32.2126 7.08742 24.1799 
-28.5681 4.7468 23.9723 
-25.01 0.940121 21.0517 
-25.9421 1.45348 21.2272 
-26.0402 1.63206 21.0083 
-27.0152 2.18174 21.9847 
-27.0625 2.6012 21.5185 
-28.8554 5.00602 21.623 
-31.2726 6.82988 22.8076 
-27.2198 3.38426 20.5223 
-26.1652 1.76588 20.1667 
-25.05 2.4134 18.1215 
-27.4282 3.66852 19.9981 
-25.5315 1.41143 20.0374 
-24.8699 0.818394 20.3344 
-24.7163 1.32735 18.6311 
-31.2867 6.85734 22.2718 
-29.1297 5.21321 21.1711 
-26.0078 2.91467 18.8999 
-27.8655 5.92331 19.2011 
-25.1552 5.09576 16.7967 
-28.788 6.37654 20.78 
-29.2454 5.53332 21.0165 
-22.9921 2.28279 14.7004 
-23.0425 3.56153 14.509 
-24.4468 1.15248 18.2768 
-21.3838 -0.206959 15.6048 
-23.0951 -0.0126991 18.7617 
-22.1366 -0.631573 19.4771 
-19.9829 -1.35515 17.2913 
-17.4534 -2.09439 15.2824 
-18.2638 -0.662373 12.9855 
-14.4837 -1.51215 11.2864 
-15.194 -0.446812 9.7879 
-10.6469 -1.73014 8.35856 
-11.8089 -0.315945 6.82469 
-6.77063 -1.14563 4.3235 
-8.18676 0.641758 2.88997 
-2.1541 -0.0978966 0.646054 
-3.25733 1.91286 -0.339497 
0.762947 1.0703 -1.86594 
-0.543409 2.86191 -2.94982 
2.71021 2.41735 -3.77862 
1.81627 3.43873 -4.48131 
4.12882 3.0282 -5.18953 
3.2197 3.81861 -5.64276 
5.38581 2.55985 -7.36505 
-19.9228 2.2697 12.2441 
-16.1504 2.86459 8.54595 
-13.3141 2.68777 6.03858 
-9.58962 3.37994 2.95478 
-4.02916 4.16661 -0.666589 
-0.743021 4.97415 -3.40514 
1.40091 4.83007 -4.69895 
3.74092 4.85732 -6.63157 
4.53851 4.2969 -7.83441 
-23.1835 0.965267 10.6968 
-23.2378 1.25502 10.7835 
-20.7755 1.21072 9.90862 
-20.3115 1.05972 7.14846 
-21.5805 0.873379 7.90096 
-22.867 0.738331 9.45856 
-15.3071 6.50839 9.964 
-18.6987 6.35826 13.3683 
-8.84904 6.38723 4.07648 
-2.99669 5.62197 -0.301348 
1.40732 5.63523 -4.45636 
4.01722 5.37616 -6.52875 
-23.9364 6.92419 17.4601 
-21.1551 6.63574 15.2696 
-26.6849 7.39964 19.3465 
-28.2333 7.27153 20.9877 
-31.1393 7.30146 22.0957 
-30.633 7.97903 22.2077 
-32.3045 7.95139 22.9019 
-32.3738 8.42715 23.1877 
6.16679 0.655468 -14.3263 
3.59842 0.136845 -13.1407 
5.61891 -0.862263 -16.2759 
6.22078 3.08767 -8.5635 
7.55892 3.81864 -9.5132 
7.57396 4.30191 -8.29948 
8.528 4.13433 -10.1209 
8.15134 4.54201 -9.19242 
5.01383 2.34127 -7.86676 
-32.1666 7.74144 23.9948 
-32.3241 7.48365 23.7558 
-32.5332 7.76595 23.3354 
-32.4718 8.16047 23.6693 
-22.8574 0.996067 9.42976 
-21.5412 1.04232 7.92182 
0.145829 -4.42795 11.4288 
1.58061 -5.22818 11.2504 
-11.9823 6.26538 7.19677 
-0.587623 5.82925 -2.86641 
5.18786 5.2686 -7.47094 
3.44978 1.51194 -10.8357 
3.48422 0.31303 -13.2908 
3.65794 1.21128 -10.5919 
7.91254 3.33368 -11.5296 
-20.855 0.722446 23.626 
-4.14781 -4.33103 16.5416 
-8.74463 -1.83574 17.6199 
-1.46395 -5.4903 15.2057 
0.663862 -5.72637 13.0936 
-1.977 -1.04539 10.4668 
-2.4941 -3.32269 13.5156 
-4.39017 -1.4551 13.6862 
-1.2524 -4.3074 13.2791 
-25.8757 3.81115 25.3558 
-23.3099 3.2039 25.1059 
-20.865 1.29274 23.8704 
-20.5046 2.06741 24.1318 
-16.4187 0.927258 22.8261 
-12.0976 0.0114326 20.9198 
-8.94082 0.393246 17.8565 
-4.68163 0.645962 13.8945 
-1.48332 1.00042 9.1008 
1.51773 1.18547 4.28088 
3.56651 2.80147 0.607467 
4.71327 3.46486 -1.99762 
5.8969 3.72368 -4.30281 
7.18964 4.07736 -5.67672 
7.08095 4.36309 -6.44897 
-20.6401 3.0971 24.4342 
-19.1085 4.03548 23.7132 
-16.2154 2.76773 22.2872 
-12.6583 1.99965 20.4757 
-9.30463 2.42463 17.4691 
-5.76601 2.38253 13.8529 
-2.01457 2.51446 9.01714 
1.42353 2.1873 4.23046 
-20.4525 5.1305 24.1392 
-21.2901 4.61706 24.7079 
-22.4112 4.74402 24.7094 
-24.7836 5.33182 24.756 
-27.0509 5.44349 24.5838 
-20.8849 5.7633 23.4665 
-21.6181 5.05536 24.2233 
-27.4193 6.23097 24.5429 
-30.9132 7.87311 24.1024 
-31.1336 7.68809 24.5796 
-27.4395 7.00253 23.6392 
-28.092 5.48743 24.4793 
-31.8321 7.67935 24.5851 
-22.13 5.42037 24.1187 
-23.1601 6.11231 24.0752 
-23.0855 5.89727 24.2692 
-24.5391 6.0336 24.6215 
-24.6342 6.37872 24.1044 
-27.3315 7.37663 23.2458 
-30.4872 8.05164 23.644 
-24.7914 7.16177 23.1082 
-22.9281 6.8016 23.6139 
-21.7886 7.48703 21.5946 
-24.8574 7.66764 22.7357 
-22.2701 6.48505 23.5105 
-21.6327 5.85411 23.7816 
-21.0978 6.95645 22.4845 
-30.2633 8.44941 23.3616 
-27.4155 7.87978 22.9965 
-26.2704 8.40472 20.8997 
-23.0322 7.54362 22.0686 
-23.0605 8.35425 19.0273 
-27.8358 7.8578 21.794 
-27.6269 8.05118 22.7401 
-18.9452 8.57816 19.0099 
-19.7576 8.6716 18.0071 
-20.6614 7.04109 22.3079 
-16.7652 6.97776 20.5231 
-19.334 5.83801 22.7667 
-18.7083 4.70156 23.1279 
-15.9839 4.86587 21.5498 
-13.1207 4.64565 19.8963 
-13.4793 6.78039 18.0804 
-9.98416 5.48741 16.0779 
-10.4095 6.99596 14.8828 
-6.31423 5.0099 12.9724 
-7.21467 6.83087 11.717 
-2.65253 5.26054 8.70883 
-3.99744 7.15874 7.35115 
0.940562 4.71621 3.94154 
-0.590968 6.0607 2.49989 
2.9532 4.4775 0.466444 
1.50346 6.04605 -0.770127 
4.01949 4.45408 -2.38438 
3.14898 5.51192 -3.06212 
5.0576 4.47302 -4.20049 
4.2197 5.37423 -4.57786 
7.09996 5.22641 -5.53966 
-16.0661 8.26912 16.351 
-12.6274 8.34498 12.2975 
-9.74328 8.24251 9.84106 
-6.68521 7.89809 6.04766 
-2.4106 6.68446 1.057 
0.161386 6.38105 -2.44205 
2.06727 5.86666 -3.98935 
4.26482 5.67231 -6.07367 
5.65754 6.03769 -6.64276 
-16.28 11.7044 18.0483 
-16.549 11.6603 17.9064 
-14.7286 10.6173 16.3479 
-13.0744 12.3179 14.8552 
-15.3683 12.4033 17.4438 
-14.0107 12.6491 15.962 
-30.4017 8.44886 22.8812 
-31.8762 8.61766 23.358 
13.7361 11.7649 -7.63197 
10.4541 10.8017 -5.84015 
12.0946 9.87692 -8.01375 
7.76812 5.49472 -6.91575 
8.46333 5.22555 -8.5501 
9.07533 4.98577 -9.53804 
7.27532 5.85928 -5.45852 
-31.967 8.03913 24.1361 
-32.0806 8.47013 23.8175 
-14.1138 12.5965 15.8312 
-15.5256 12.4015 17.2373 
10.3399 10.9778 -5.99027 
8.35326 9.13987 -5.61398 
8.56142 8.83921 -5.37026 
9.93598 6.48137 -9.37482 
3.69036 12.0379 -15.9535 
-0.860026 14.4202 -15.1604 
-0.890381 13.8795 -15.9713 
3.89661 11.6802 -16.847 
6.89583 10.9427 -17.3636 
6.8186 10.8913 -17.9294 
9.30637 10.7859 -19.3983 
9.16104 10.9891 -19.8131 
10.3797 11.1165 -20.8892 
6.57312 15.6024 -23.8676 
7.03736 13.8985 -21.8145 
5.71042 14.4104 -23.3021 
3.13129 13.7426 -20.2593 
5.55041 12.6885 -19.873 
7.03008 12.0742 -19.856 
-16.6334 18.2961 -6.01028 
-16.4523 17.6046 -6.69724 
-15.2601 17.7621 -6.51976 
-13.2328 17.0871 -7.43748 
-14.5284 16.4103 -8.03162 
-7.10912 15.2454 -10.4976 
-10.5369 16.2836 -8.79523 
-11.372 16.1302 -8.8552 
-8.41166 14.305 -11.5658 
-11.8576 15.6531 -9.43354 
-3.39095 14.3984 -12.7519 
-4.80469 13.1216 -14.038 
-2.63391 13.7015 -17.3825 
1.43502 13.6582 -21.5471 
5.22848 14.9385 -25.7071 
8.97019 15.7695 -28.7034 
9.65346 16.3387 -27.8358 
12.149 16.4852 -30.3933 
11.185 16.1689 -31.9778 
13.8977 16.3388 -31.8216 
13.2949 16.3714 -33.6959 
15.7288 16.038 -33.1017 
15.5634 16.1846 -34.7376 
17.2993 15.7171 -34.1077 
17.1236 15.3687 -35.3675 
18.5503 15.8248 -35.4399 
17.7105 15.6349 -35.8507 
-12.8151 15.4169 -9.86859 
-12.478 15.0226 -11.6974 
-9.48556 14.4794 -13.1529 
-6.36485 13.6929 -15.3413 
-4.04459 14.1043 -18.8847 
-0.340083 14.3203 -22.3242 
3.93527 15.2672 -26.6021 
8.36199 15.8025 -29.505 
-14.4205 15.4677 -10.3192 
-14.1802 15.4008 -11.4149 
-15.1238 16.1062 -9.72565 
-16.8849 17.3749 -8.60264 
-18.1611 18.7701 -7.30413 
-14.7818 16.0197 -10.6339 
-14.6798 16.1525 -11.8895 
-18.9784 18.9456 -7.55645 
-22.2238 20.7879 -5.87748 
-22.1168 21.0619 -6.37819 
-19.3347 19.65 -8.45522 
-18.8142 19.8772 -6.27197 
-22.3737 21.3148 -5.02948 
-22.6084 21.1483 -5.37946 
-18.7371 19.4237 -6.69995 
-15.3091 16.3756 -10.6065 
-16.2495 16.7687 -10.2476 
-16.3964 16.9541 -10.4306 
-17.2621 17.2957 -9.25295 
-17.4258 17.7491 -9.6593 
-19.4512 19.8891 -8.94972 
-21.89 21.2103 -7.01035 
-17.8124 18.5986 -10.5373 
-16.6564 17.1472 -11.2319 
-15.8664 18.071 -13.3755 
-18.1251 18.9044 -10.995 
-16.013 16.8741 -11.4893 
-15.2635 16.3291 -11.3449 
-15.3805 16.9849 -13.0086 
-22.0017 21.2977 -7.54215 
-19.8209 20.1043 -9.32368 
-16.7762 18.4107 -12.4061 
-18.9009 21.1586 -11.4732 
-16.3371 20.8266 -14.4639 
-19.6637 21.3372 -9.64303 
-19.9969 20.4209 -9.41643 
-14.112 18.3455 -17.1032 
-14.2597 19.6268 -17.2071 
-15.1406 16.8631 -13.4127 
-12.2643 15.921 -16.519 
-13.6483 15.7888 -13.1926 
-12.5696 15.2038 -12.6396 
-10.6515 14.7738 -15.0331 
-8.30077 14.2621 -17.2064 
-9.30451 15.7416 -19.3911 
-5.86751 15.3884 -21.4935 
-6.57779 16.4538 -22.992 
-2.03082 15.1704 -24.4212 
-3.19275 16.5846 -25.9551 
1.84558 15.7549 -28.4564 
0.429441 17.5423 -29.8899 
6.79569 16.1769 -31.5329 
6.03741 18.1751 -32.824 
10.2082 16.5942 -33.4132 
9.64653 18.3154 -35.0935 
12.9158 17.0308 -34.7099 
12.6647 17.9677 -35.8928 
14.9016 16.803 -35.4284 
14.579 17.5788 -36.411 
16.6792 15.1916 -36.423 
-11.1318 18.6281 -19.9079 
-7.53416 19.7652 -24.2339 
-4.69784 19.5883 -26.7413 
-0.973405 20.2805 -29.8251 
5.50767 20.4508 -33.4105 
10.0939 20.2784 -35.9385 
12.7891 19.2932 -36.5211 
15.9097 17.9782 -37.2261 
16.9665 16.7224 -37.6566 
-13.9092 16.4473 -20.6288 
-13.9758 16.7293 -20.5193 
-11.4725 16.8348 -21.6515 
-11.0291 16.776 -24.527 
-12.3345 16.5333 -23.6581 
-13.6224 16.2912 -21.9425 
-6.69089 23.409 -22.8158 
-10.0073 22.7199 -18.6949 
-0.232826 23.2878 -28.7034 
6.71253 21.8287 -33.0941 
12.9385 20.1216 -36.4469 
16.3175 18.405 -37.1123 
-15.1734 22.7032 -13.8192 
-12.4638 22.7726 -16.4651 
-17.8251 22.7418 -11.3855 
-19.1686 22.2708 -9.43587 
-21.9378 21.7768 -7.69086 
-21.4899 22.5054 -7.5987 
-23.0537 22.1382 -6.50958 
-23.1333 22.5582 -6.13258 
19.6816 9.67738 -40.1969 
16.965 10.7712 -41.2276 
19.4529 7.44196 -41.3978 
18.12 14.8569 -36.9302 
19.9324 14.5869 -36.8632 
19.6002 15.6233 -36.1314 
21.0744 14.2173 -36.6321 
20.5738 15.1776 -36.3946 
16.5112 14.8788 -36.9786 
-22.6841 21.8196 -5.47553 
-22.8536 21.571 -5.71665 
-23.1798 21.8657 -6.04525 
-23.1073 22.2208 -5.66406 
-13.6251 16.55 -21.9614 
-12.2991 16.7028 -23.6343 
8.76203 12.4726 -21.3511 
10.1968 11.6724 -21.5295 
-3.36605 23.1659 -25.5831 
10.2441 21.2009 -35.4932 
17.7654 17.5446 -37.2151 
16.3197 13.1953 -39.9885 
17.0529 10.8651 -41.4474 
16.2178 13.002 -39.6106 
20.9231 12.9404 -37.781 
-10.8529 16.3609 -8.61147 
4.46831 12.5696 -16.2382 
-0.12843 15.0648 -15.1599 
7.15225 11.4103 -17.5741 
9.28006 11.1742 -19.6863 
6.6392 15.8552 -22.313 
6.1221 13.5779 -19.2642 
4.22595 15.4455 -19.0936 
7.36373 12.5932 -19.5007 
-15.7381 18.7156 -5.93675 
-13.2191 18.447 -6.63738 
-10.8725 16.9073 -8.32325 
-10.5483 17.6898 -8.0393 
-6.69751 16.9715 -9.74046 
-2.71003 16.3801 -11.8074 
-0.324626 17.2938 -14.9233 
3.93456 17.5465 -18.8853 
7.13288 17.901 -23.6791 
10.0648 17.4724 -27.5377 
12.5655 18.3164 -30.5077 
14.4139 18.1122 -32.5042 
16.301 17.332 -33.9522 
18.028 16.7756 -34.4044 
18.4012 16.7094 -35.1152 
-10.7205 18.6753 -7.638 
-9.40681 19.8003 -8.42684 
-6.67674 18.8489 -10.1618 
-3.36578 18.3583 -12.1476 
-0.68844 19.3252 -15.3107 
2.85018 19.2831 -18.9269 
6.60163 19.4151 -23.7627 
10.0761 18.4691 -27.6796 
-10.7519 20.7339 -7.76409 
-11.4448 20.0967 -7.15042 
-12.553 20.1053 -6.98806 
-14.9326 20.4118 -6.52375 
-17.2088 20.2514 -6.29013 
-11.3237 21.3734 -8.31556 
-11.8774 20.5379 -7.54106 
-17.6691 20.9823 -6.16221 
-21.4261 22.1364 -5.64264 
-21.533 21.8624 -5.14193 
-17.9299 21.8354 -6.95918 
-18.261 20.1643 -6.19295 
-22.2279 21.7402 -4.97426 
-12.429 20.8558 -7.53952 
-13.5163 21.4344 -7.36366 
-13.3929 21.2125 -7.20559 
-14.786 21.1476 -6.61616 
-14.9975 21.5266 -7.07341 
-17.9273 22.2597 -7.32692 
-21.1046 22.432 -6.174 
-15.3841 22.3761 -7.95138 
-13.4193 22.1829 -7.78473 
-12.6049 23.1447 -9.90236 
-15.5543 22.9036 -8.25739 
-12.7515 21.9477 -8.01617 
-12.0264 21.3648 -7.89767 
-11.7619 22.614 -9.15521 
-20.9783 22.8898 -6.4523 
-18.1067 22.7709 -7.49829 
-17.3058 23.64 -9.77459 
-13.8005 23.0397 -9.23741 
-14.2425 24.0851 -12.2333 
-18.7115 22.8184 -8.62904 
-18.3783 22.9387 -7.69284 
-10.0651 24.6409 -12.7937 
-10.9748 24.7369 -13.709 
-11.3553 22.7517 -9.38163 
-7.64569 23.1057 -11.6007 
-9.88733 21.6395 -9.18752 
-9.1413 20.537 -8.98882 
-6.65238 20.9949 -10.7746 
-3.96805 21.0021 -12.5925 
-4.52005 23.1844 -14.2962 
-1.36797 22.388 -16.702 
-1.79334 23.8965 -17.897 
2.3019 21.9105 -19.8073 
1.40145 23.7314 -21.0628 
5.96368 22.1611 -24.071 
4.61877 24.0593 -25.4287 
9.89036 20.991 -28.2374 
8.70377 22.3229 -29.9847 
12.3985 20.0014 -31.0808 
11.6934 21.4995 -32.9138 
14.2251 19.0675 -33.3157 
13.9974 20.0409 -34.4737 
15.8304 18.2478 -34.4393 
15.579 19.1345 -35.3461 
18.3934 17.8581 -34.5976 
-7.27518 24.6275 -15.801 
-4.01119 25.2455 -20.4823 
-1.12708 25.1431 -22.9388 
1.93101 24.7987 -26.7322 
7.12623 22.9686 -31.6869 
10.9983 21.6853 -34.9754 
13.4554 20.3298 -35.8115 
16.4336 18.7932 -36.6682 
18.0856 18.4632 -36.4649 
-7.0057 27.1865 -13.2774 
-7.28693 27.1346 -13.3964 
-5.4256 26.2414 -15.2122 
-3.79198 28.0342 -16.8203 
-6.12383 27.9561 -13.9573 
-4.76465 28.3091 -15.597 
-21.2002 22.9242 -6.90542 
-22.6254 22.8045 -6.05348 
27.57 20.0692 -32.7539 
23.8206 21.436 -33.9271 
25.6095 18.8988 -33.8844 
19.6673 17.2639 -35.2825 
20.8368 15.9938 -35.9001 
21.6217 15.0687 -36.0493 
18.7726 18.3968 -34.5703 
-22.4965 22.1265 -5.3364 
-22.7272 22.5699 -5.5632 
-4.87168 28.257 -15.7249 
-6.29334 27.9555 -14.1539 
23.9086 21.5299 -34.1469 
21.2232 20.8232 -34.7669 
21.1213 20.6299 -34.3889 
22.9466 16.0881 -35.6263 
3 0 1 2 
3 2 3 0 
3 4 0 3 
3 3 5 4 
3 6 4 5 
3 5 7 6 
3 8 6 7 
3 9 10 11 
3 3 2 12 
3 12 13 3 
3 5 3 13 
3 13 14 5 
3 7 5 14 
3 15 16 17 
3 18 17 16 
3 16 19 18 
3 20 21 22 
3 22 23 20 
3 23 22 24 
3 25 20 23 
3 23 26 25 
3 1 25 26 
3 26 2 1 
3 27 2 26 
3 12 2 27 
3 27 28 12 
3 11 12 28 
3 28 29 11 
3 9 11 29 
3 9 29 30 
3 30 31 9 
3 32 31 30 
3 30 33 32 
3 34 32 33 
3 33 35 34 
3 36 34 35 
3 35 37 36 
3 38 36 37 
3 37 39 38 
3 40 38 39 
3 39 41 40 
3 24 19 42 
3 24 42 43 
3 24 43 44 
3 44 23 24 
3 26 23 44 
3 44 45 26 
3 27 26 45 
3 45 46 27 
3 28 27 46 
3 46 47 28 
3 29 28 47 
3 47 48 29 
3 30 29 48 
3 48 49 30 
3 33 30 49 
3 50 51 43 
3 43 42 50 
3 52 50 42 
3 42 19 52 
3 53 52 19 
3 19 16 53 
3 54 53 16 
3 55 56 51 
3 51 50 55 
3 52 55 50 
3 54 57 53 
3 58 59 60 
3 60 57 58 
3 61 62 63 
3 63 64 61 
3 64 54 16 
3 16 15 64 
3 61 64 15 
3 65 52 66 
3 66 67 65 
3 52 53 68 
3 68 66 52 
3 67 66 68 
3 68 69 67 
3 69 68 57 
3 57 60 69 
3 70 60 59 
3 59 71 70 
3 69 60 70 
3 70 72 69 
3 73 67 69 
3 74 73 72 
3 72 75 74 
3 57 54 64 
3 65 67 76 
3 77 65 76 
3 56 77 76 
3 78 56 76 
3 73 78 76 
3 67 73 76 
3 71 79 80 
3 80 70 71 
3 70 80 75 
3 75 72 70 
3 81 75 82 
3 82 74 81 
3 74 82 83 
3 84 82 75 
3 75 85 84 
3 86 74 83 
3 83 87 86 
3 88 74 86 
3 86 89 88 
3 88 78 74 
3 56 78 88 
3 88 90 56 
3 43 51 56 
3 56 91 43 
3 91 56 90 
3 92 90 88 
3 88 89 92 
3 93 92 89 
3 89 94 93 
3 95 93 94 
3 94 96 95 
3 97 95 96 
3 96 98 97 
3 99 97 98 
3 98 100 99 
3 101 99 100 
3 100 102 101 
3 103 101 102 
3 102 104 103 
3 105 103 104 
3 104 106 105 
3 107 105 106 
3 106 108 107 
3 91 90 92 
3 44 91 92 
3 43 91 44 
3 45 44 92 
3 92 93 45 
3 46 45 93 
3 93 95 46 
3 47 46 95 
3 95 97 47 
3 48 47 97 
3 97 99 48 
3 49 48 99 
3 99 101 49 
3 33 49 101 
3 101 103 33 
3 35 33 103 
3 103 105 35 
3 37 35 105 
3 105 107 37 
3 39 37 107 
3 107 109 39 
3 41 39 109 
3 94 89 86 
3 86 110 94 
3 96 94 110 
3 110 111 96 
3 98 96 111 
3 111 112 98 
3 100 98 112 
3 112 113 100 
3 102 100 113 
3 113 114 102 
3 104 102 114 
3 114 115 104 
3 106 104 115 
3 115 116 106 
3 108 106 116 
3 116 117 108 
3 118 108 117 
3 119 86 87 
3 87 120 119 
3 110 86 119 
3 119 121 110 
3 122 121 119 
3 119 123 122 
3 123 119 124 
3 125 111 110 
3 110 126 125 
3 114 113 127 
3 127 128 114 
3 117 116 129 
3 129 130 117 
3 87 83 131 
3 131 132 87 
3 110 87 132 
3 132 126 110 
3 83 82 133 
3 133 131 83 
3 82 84 134 
3 134 133 82 
3 84 135 136 
3 136 134 84 
3 84 85 135 
3 137 138 136 
3 136 135 137 
3 139 140 141 
3 41 142 143 
3 143 144 41 
3 144 143 145 
3 145 146 144 
3 147 109 107 
3 107 108 147 
3 118 147 108 
3 58 57 64 
3 64 63 58 
3 148 149 63 
3 63 62 148 
3 58 63 149 
3 149 59 58 
3 75 80 85 
3 79 135 85 
3 85 80 79 
3 135 79 137 
3 150 137 79 
3 79 71 150 
3 149 150 71 
3 71 59 149 
3 138 137 150 
3 150 151 138 
3 149 148 151 
3 151 150 149 
3 55 52 65 
3 77 56 55 
3 74 78 73 
3 57 68 53 
3 65 77 55 
3 152 153 123 
3 123 124 152 
3 124 119 120 
3 120 152 124 
3 122 123 153 
3 121 120 87 
3 87 110 121 
3 122 153 152 
3 152 121 122 
3 121 152 120 
3 10 13 12 
3 12 11 10 
3 10 154 14 
3 14 13 10 
3 154 155 8 
3 8 14 154 
3 14 8 7 
3 113 112 156 
3 156 127 113 
3 156 112 111 
3 111 125 156 
3 129 116 115 
3 115 157 129 
3 128 157 115 
3 115 114 128 
3 117 130 158 
3 158 118 117 
3 159 160 140 
3 140 161 159 
3 161 147 118 
3 118 159 161 
3 141 140 160 
3 41 144 40 
3 118 158 146 
3 146 145 162 
3 162 118 146 
3 118 162 159 
3 162 139 160 
3 160 159 162 
3 160 139 141 
3 140 139 162 
3 162 161 140 
3 162 145 143 
3 143 161 162 
3 161 143 142 
3 161 142 147 
3 142 41 109 
3 109 147 142 
3 21 163 22 
3 19 22 163 
3 163 18 19 
3 19 24 22 
3 1 0 164 
3 164 165 1 
3 0 4 166 
3 166 164 0 
3 4 6 167 
3 167 166 4 
3 167 6 8 
3 168 10 9 
3 165 164 169 
3 169 170 165 
3 164 166 171 
3 171 169 164 
3 171 166 167 
3 17 172 15 
3 17 18 173 
3 173 172 17 
3 174 21 20 
3 20 175 174 
3 175 20 176 
3 20 25 177 
3 177 176 20 
3 25 1 165 
3 165 177 25 
3 177 165 178 
3 165 170 179 
3 179 178 165 
3 170 168 180 
3 180 179 170 
3 180 168 9 
3 180 9 31 
3 31 181 180 
3 31 32 182 
3 182 181 31 
3 32 34 183 
3 183 182 32 
3 34 36 184 
3 184 183 34 
3 36 38 185 
3 185 184 36 
3 38 40 186 
3 186 185 38 
3 187 173 175 
3 188 187 175 
3 188 175 176 
3 176 189 188 
3 176 177 190 
3 190 189 176 
3 177 178 191 
3 191 190 177 
3 178 179 192 
3 192 191 178 
3 179 180 193 
3 193 192 179 
3 180 181 194 
3 194 193 180 
3 194 181 182 
3 195 196 187 
3 187 188 195 
3 196 197 173 
3 173 187 196 
3 173 197 198 
3 198 172 173 
3 172 198 199 
3 200 201 196 
3 196 195 200 
3 196 201 197 
3 198 202 199 
3 203 204 202 
3 202 205 203 
3 62 61 206 
3 206 207 62 
3 199 206 15 
3 15 172 199 
3 15 206 61 
3 197 208 209 
3 209 210 197 
3 198 197 210 
3 210 211 198 
3 210 209 212 
3 212 211 210 
3 211 212 205 
3 205 202 211 
3 205 213 214 
3 214 203 205 
3 205 212 215 
3 215 213 205 
3 212 209 216 
3 216 217 218 
3 218 215 216 
3 206 199 202 
3 219 209 208 
3 219 208 220 
3 219 220 200 
3 219 200 221 
3 219 221 216 
3 219 216 209 
3 222 214 213 
3 213 223 222 
3 223 213 215 
3 215 218 223 
3 224 218 225 
3 225 226 224 
3 226 225 217 
3 224 227 228 
3 228 218 224 
3 217 229 230 
3 230 226 217 
3 217 231 232 
3 232 229 217 
3 217 221 231 
3 221 200 233 
3 233 231 221 
3 200 195 188 
3 188 233 200 
3 233 188 234 
3 233 235 232 
3 232 231 233 
3 235 236 237 
3 237 232 235 
3 236 238 239 
3 239 237 236 
3 238 240 241 
3 241 239 238 
3 240 242 243 
3 243 241 240 
3 242 244 245 
3 245 243 242 
3 244 246 247 
3 247 245 244 
3 246 248 249 
3 249 247 246 
3 248 250 251 
3 251 249 248 
3 235 233 234 
3 235 234 189 
3 189 234 188 
3 189 190 236 
3 236 235 189 
3 190 191 238 
3 238 236 190 
3 191 192 240 
3 240 238 191 
3 192 193 242 
3 242 240 192 
3 193 194 244 
3 244 242 193 
3 194 182 246 
3 246 244 194 
3 182 183 248 
3 248 246 182 
3 183 184 250 
3 250 248 183 
3 184 185 252 
3 252 250 184 
3 252 185 186 
3 232 237 253 
3 253 229 232 
3 237 239 254 
3 254 253 237 
3 239 241 255 
3 255 254 239 
3 241 243 256 
3 256 255 241 
3 243 245 257 
3 257 256 243 
3 245 247 258 
3 258 257 245 
3 247 249 259 
3 259 258 247 
3 249 251 260 
3 260 259 249 
3 260 251 261 
3 229 262 263 
3 263 230 229 
3 229 253 264 
3 264 262 229 
3 262 264 265 
3 265 266 262 
3 266 265 267 
3 254 125 126 
3 126 253 254 
3 256 257 128 
3 128 127 256 
3 259 260 130 
3 130 129 259 
3 226 230 132 
3 132 131 226 
3 230 253 126 
3 126 132 230 
3 224 226 131 
3 131 133 224 
3 227 224 133 
3 133 134 227 
3 268 227 134 
3 134 136 268 
3 268 228 227 
3 138 269 268 
3 268 136 138 
3 270 271 272 
3 273 186 144 
3 144 274 273 
3 274 144 146 
3 146 275 274 
3 252 276 251 
3 251 250 252 
3 251 276 261 
3 202 204 207 
3 207 206 202 
3 277 148 62 
3 62 207 277 
3 207 204 203 
3 203 277 207 
3 228 223 218 
3 268 222 223 
3 223 228 268 
3 269 222 268 
3 269 278 214 
3 214 222 269 
3 278 277 203 
3 203 214 278 
3 269 138 151 
3 151 278 269 
3 148 277 278 
3 278 151 148 
3 208 197 201 
3 201 200 220 
3 216 221 217 
3 198 211 202 
3 201 220 208 
3 279 280 266 
3 266 267 279 
3 262 266 280 
3 280 263 262 
3 279 267 265 
3 263 264 253 
3 253 230 263 
3 280 279 265 
3 265 263 280 
3 263 265 264 
3 169 10 168 
3 168 170 169 
3 154 10 169 
3 169 171 154 
3 154 167 8 
3 167 154 171 
3 255 256 127 
3 127 156 255 
3 255 156 125 
3 125 254 255 
3 259 129 157 
3 157 258 259 
3 157 128 257 
3 257 258 157 
3 130 260 261 
3 261 158 130 
3 281 282 283 
3 283 271 281 
3 276 283 282 
3 282 261 276 
3 281 271 270 
3 40 144 186 
3 146 158 261 
3 284 275 146 
3 146 282 284 
3 282 146 261 
3 272 284 282 
3 282 281 272 
3 270 272 281 
3 272 271 283 
3 283 284 272 
3 275 284 283 
3 283 274 275 
3 273 274 283 
3 276 273 283 
3 186 273 276 
3 276 252 186 
3 174 163 21 
3 174 173 18 
3 18 163 174 
3 174 175 173 
3 216 215 212 
3 69 72 73 
3 285 286 287 
3 287 288 285 
3 289 285 288 
3 288 290 289 
3 291 289 290 
3 290 292 291 
3 293 291 292 
3 294 295 296 
3 288 287 297 
3 297 298 288 
3 290 288 298 
3 298 299 290 
3 292 290 299 
3 300 301 302 
3 303 302 301 
3 301 304 303 
3 305 306 307 
3 307 308 305 
3 308 307 309 
3 310 305 308 
3 308 311 310 
3 286 310 311 
3 311 287 286 
3 312 287 311 
3 297 287 312 
3 312 313 297 
3 296 297 313 
3 313 314 296 
3 294 296 314 
3 294 314 315 
3 315 316 294 
3 317 316 315 
3 315 318 317 
3 319 317 318 
3 318 320 319 
3 321 319 320 
3 320 322 321 
3 323 321 322 
3 322 324 323 
3 325 323 324 
3 324 326 325 
3 309 304 327 
3 309 327 328 
3 309 328 329 
3 329 308 309 
3 311 308 329 
3 329 330 311 
3 312 311 330 
3 330 331 312 
3 313 312 331 
3 331 332 313 
3 314 313 332 
3 332 333 314 
3 315 314 333 
3 333 334 315 
3 318 315 334 
3 335 336 328 
3 328 327 335 
3 337 335 327 
3 327 304 337 
3 338 337 304 
3 304 301 338 
3 339 338 301 
3 340 341 336 
3 336 335 340 
3 337 340 335 
3 339 342 338 
3 343 344 345 
3 345 342 343 
3 346 347 348 
3 348 349 346 
3 349 339 301 
3 301 300 349 
3 346 349 300 
3 350 337 351 
3 351 352 350 
3 337 338 353 
3 353 351 337 
3 352 351 353 
3 353 354 352 
3 354 353 342 
3 342 345 354 
3 355 345 344 
3 344 356 355 
3 354 345 355 
3 355 357 354 
3 358 352 354 
3 359 358 357 
3 357 360 359 
3 342 339 349 
3 350 352 361 
3 362 350 361 
3 341 362 361 
3 363 341 361 
3 358 363 361 
3 352 358 361 
3 356 364 365 
3 365 355 356 
3 355 365 360 
3 360 357 355 
3 366 360 367 
3 367 359 366 
3 359 367 368 
3 369 367 360 
3 360 370 369 
3 371 359 368 
3 368 372 371 
3 373 359 371 
3 371 374 373 
3 373 363 359 
3 341 363 373 
3 373 375 341 
3 328 336 341 
3 341 376 328 
3 376 341 375 
3 377 375 373 
3 373 374 377 
3 378 377 374 
3 374 379 378 
3 380 378 379 
3 379 381 380 
3 382 380 381 
3 381 383 382 
3 384 382 383 
3 383 385 384 
3 386 384 385 
3 385 387 386 
3 388 386 387 
3 387 389 388 
3 390 388 389 
3 389 391 390 
3 392 390 391 
3 391 393 392 
3 376 375 377 
3 329 376 377 
3 328 376 329 
3 330 329 377 
3 377 378 330 
3 331 330 378 
3 378 380 331 
3 332 331 380 
3 380 382 332 
3 333 332 382 
3 382 384 333 
3 334 333 384 
3 384 386 334 
3 318 334 386 
3 386 388 318 
3 320 318 388 
3 388 390 320 
3 322 320 390 
3 390 392 322 
3 324 322 392 
3 392 394 324 
3 326 324 394 
3 379 374 371 
3 371 395 379 
3 381 379 395 
3 395 396 381 
3 383 381 396 
3 396 397 383 
3 385 383 397 
3 397 398 385 
3 387 385 398 
3 398 399 387 
3 389 387 399 
3 399 400 389 
3 391 389 400 
3 400 401 391 
3 393 391 401 
3 401 402 393 
3 403 393 402 
3 404 371 372 
3 372 405 404 
3 395 371 404 
3 404 406 395 
3 407 406 404 
3 404 408 407 
3 408 404 409 
3 410 396 395 
3 395 411 410 
3 399 398 412 
3 412 413 399 
3 402 401 414 
3 414 415 402 
3 372 368 416 
3 416 417 372 
3 395 372 417 
3 417 411 395 
3 368 367 418 
3 418 416 368 
3 367 369 419 
3 419 418 367 
3 369 420 421 
3 421 419 369 
3 369 370 420 
3 422 423 421 
3 421 420 422 
3 424 425 426 
3 326 427 428 
3 428 429 326 
3 429 428 430 
3 430 431 429 
3 432 394 392 
3 392 393 432 
3 403 432 393 
3 343 342 349 
3 349 348 343 
3 433 434 348 
3 348 347 433 
3 343 348 434 
3 434 344 343 
3 360 365 370 
3 364 420 370 
3 370 365 364 
3 420 364 422 
3 435 422 364 
3 364 356 435 
3 434 435 356 
3 356 344 434 
3 423 422 435 
3 435 436 423 
3 434 433 436 
3 436 435 434 
3 340 337 350 
3 362 341 340 
3 359 363 358 
3 342 353 338 
3 350 362 340 
3 437 438 408 
3 408 409 437 
3 409 404 405 
3 405 437 409 
3 407 408 438 
3 406 405 372 
3 372 395 406 
3 407 438 437 
3 437 406 407 
3 406 437 405 
3 295 298 297 
3 297 296 295 
3 295 439 299 
3 299 298 295 
3 439 440 293 
3 293 299 439 
3 299 293 292 
3 398 397 441 
3 441 412 398 
3 441 397 396 
3 396 410 441 
3 414 401 400 
3 400 442 414 
3 413 442 400 
3 400 399 413 
3 402 415 443 
3 443 403 402 
3 444 445 425 
3 425 446 444 
3 446 432 403 
3 403 444 446 
3 426 425 445 
3 326 429 325 
3 403 443 431 
3 431 430 447 
3 447 403 431 
3 403 447 444 
3 447 424 445 
3 445 444 447 
3 445 424 426 
3 425 424 447 
3 447 446 425 
3 447 430 428 
3 428 446 447 
3 446 428 427 
3 446 427 432 
3 427 326 394 
3 394 432 427 
3 306 448 307 
3 304 307 448 
3 448 303 304 
3 304 309 307 
3 286 285 449 
3 449 450 286 
3 285 289 451 
3 451 449 285 
3 289 291 452 
3 452 451 289 
3 452 291 293 
3 453 295 294 
3 450 449 454 
3 454 455 450 
3 449 451 456 
3 456 454 449 
3 456 451 452 
3 302 457 300 
3 302 303 458 
3 458 457 302 
3 459 306 305 
3 305 460 459 
3 460 305 461 
3 305 310 462 
3 462 461 305 
3 310 286 450 
3 450 462 310 
3 462 450 463 
3 450 455 464 
3 464 463 450 
3 455 453 465 
3 465 464 455 
3 465 453 294 
3 465 294 316 
3 316 466 465 
3 316 317 467 
3 467 466 316 
3 317 319 468 
3 468 467 317 
3 319 321 469 
3 469 468 319 
3 321 323 470 
3 470 469 321 
3 323 325 471 
3 471 470 323 
3 472 458 460 
3 473 472 460 
3 473 460 461 
3 461 474 473 
3 461 462 475 
3 475 474 461 
3 462 463 476 
3 476 475 462 
3 463 464 477 
3 477 476 463 
3 464 465 478 
3 478 477 464 
3 465 466 479 
3 479 478 465 
3 479 466 467 
3 480 481 472 
3 472 473 480 
3 481 482 458 
3 458 472 481 
3 458 482 483 
3 483 457 458 
3 457 483 484 
3 485 486 481 
3 481 480 485 
3 481 486 482 
3 483 487 484 
3 488 489 487 
3 487 490 488 
3 347 346 491 
3 491 492 347 
3 484 491 300 
3 300 457 484 
3 300 491 346 
3 482 493 494 
3 494 495 482 
3 483 482 495 
3 495 496 483 
3 495 494 497 
3 497 496 495 
3 496 497 490 
3 490 487 496 
3 490 498 499 
3 499 488 490 
3 490 497 500 
3 500 498 490 
3 497 494 501 
3 501 502 503 
3 503 500 501 
3 491 484 487 
3 504 494 493 
3 504 493 505 
3 504 505 485 
3 504 485 506 
3 504 506 501 
3 504 501 494 
3 507 499 498 
3 498 508 507 
3 508 498 500 
3 500 503 508 
3 509 503 510 
3 510 511 509 
3 511 510 502 
3 509 512 513 
3 513 503 509 
3 502 514 515 
3 515 511 502 
3 502 516 517 
3 517 514 502 
3 502 506 516 
3 506 485 518 
3 518 516 506 
3 485 480 473 
3 473 518 485 
3 518 473 519 
3 518 520 517 
3 517 516 518 
3 520 521 522 
3 522 517 520 
3 521 523 524 
3 524 522 521 
3 523 525 526 
3 526 524 523 
3 525 527 528 
3 528 526 525 
3 527 529 530 
3 530 528 527 
3 529 531 532 
3 532 530 529 
3 531 533 534 
3 534 532 531 
3 533 535 536 
3 536 534 533 
3 520 518 519 
3 520 519 474 
3 474 519 473 
3 474 475 521 
3 521 520 474 
3 475 476 523 
3 523 521 475 
3 476 477 525 
3 525 523 476 
3 477 478 527 
3 527 525 477 
3 478 479 529 
3 529 527 478 
3 479 467 531 
3 531 529 479 
3 467 468 533 
3 533 531 467 
3 468 469 535 
3 535 533 468 
3 469 470 537 
3 537 535 469 
3 537 470 471 
3 517 522 538 
3 538 514 517 
3 522 524 539 
3 539 538 522 
3 524 526 540 
3 540 539 524 
3 526 528 541 
3 541 540 526 
3 528 530 542 
3 542 541 528 
3 530 532 543 
3 543 542 530 
3 532 534 544 
3 544 543 532 
3 534 536 545 
3 545 544 534 
3 545 536 546 
3 514 547 548 
3 548 515 514 
3 514 538 549 
3 549 547 514 
3 547 549 550 
3 550 551 547 
3 551 550 552 
3 539 410 411 
3 411 538 539 
3 541 542 413 
3 413 412 541 
3 544 545 415 
3 415 414 544 
3 511 515 417 
3 417 416 511 
3 515 538 411 
3 411 417 515 
3 509 511 416 
3 416 418 509 
3 512 509 418 
3 418 419 512 
3 553 512 419 
3 419 421 553 
3 553 513 512 
3 423 554 553 
3 553 421 423 
3 555 556 557 
3 558 471 429 
3 429 559 558 
3 559 429 431 
3 431 560 559 
3 537 561 536 
3 536 535 537 
3 536 561 546 
3 487 489 492 
3 492 491 487 
3 562 433 347 
3 347 492 562 
3 492 489 488 
3 488 562 492 
3 513 508 503 
3 553 507 508 
3 508 513 553 
3 554 507 553 
3 554 563 499 
3 499 507 554 
3 563 562 488 
3 488 499 563 
3 554 423 436 
3 436 563 554 
3 433 562 563 
3 563 436 433 
3 493 482 486 
3 486 485 505 
3 501 506 502 
3 483 496 487 
3 486 505 493 
3 564 565 551 
3 551 552 564 
3 547 551 565 
3 565 548 547 
3 564 552 550 
3 548 549 538 
3 538 515 548 
3 565 564 550 
3 550 548 565 
3 548 550 549 
3 454 295 453 
3 453 455 454 
3 439 295 454 
3 454 456 439 
3 439 452 293 
3 452 439 456 
3 540 541 412 
3 412 441 540 
3 540 441 410 
3 410 539 540 
3 544 414 442 
3 442 543 544 
3 442 413 542 
3 542 543 442 
3 415 545 546 
3 546 443 415 
3 566 567 568 
3 568 556 566 
3 561 568 567 
3 567 546 561 
3 566 556 555 
3 325 429 471 
3 431 443 546 
3 569 560 431 
3 431 567 569 
3 567 431 546 
3 557 569 567 
3 567 566 557 
3 555 557 566 
3 557 556 568 
3 568 569 557 
3 560 569 568 
3 568 559 560 
3 558 559 568 
3 561 558 568 
3 471 558 561 
3 561 537 471 
3 459 448 306 
3 459 458 303 
3 303 448 459 
3 459 460 458 
3 501 500 497 
3 354 357 358 
3 570 571 572 
3 572 573 570 
3 574 570 573 
3 573 575 574 
3 576 574 575 
3 575 577 576 
3 578 576 577 
3 579 580 581 
3 573 572 582 
3 582 583 573 
3 575 573 583 
3 583 584 575 
3 577 575 584 
3 585 586 587 
3 588 587 586 
3 586 589 588 
3 590 591 592 
3 592 593 590 
3 593 592 594 
3 595 590 593 
3 593 596 595 
3 571 595 596 
3 596 572 571 
3 597 572 596 
3 582 572 597 
3 597 598 582 
3 581 582 598 
3 598 599 581 
3 579 581 599 
3 579 599 600 
3 600 601 579 
3 602 601 600 
3 600 603 602 
3 604 602 603 
3 603 605 604 
3 606 604 605 
3 605 607 606 
3 608 606 607 
3 607 609 608 
3 610 608 609 
3 609 611 610 
3 594 589 612 
3 594 612 613 
3 594 613 614 
3 614 593 594 
3 596 593 614 
3 614 615 596 
3 597 596 615 
3 615 616 597 
3 598 597 616 
3 616 617 598 
3 599 598 617 
3 617 618 599 
3 600 599 618 
3 618 619 600 
3 603 600 619 
3 620 621 613 
3 613 612 620 
3 622 620 612 
3 612 589 622 
3 623 622 589 
3 589 586 623 
3 624 623 586 
3 625 626 621 
3 621 620 625 
3 622 625 620 
3 624 627 623 
3 628 629 630 
3 630 627 628 
3 631 632 633 
3 633 634 631 
3 634 624 586 
3 586 585 634 
3 631 634 585 
3 635 622 636 
3 636 637 635 
3 622 623 638 
3 638 636 622 
3 637 636 638 
3 638 639 637 
3 639 638 627 
3 627 630 639 
3 640 630 629 
3 629 641 640 
3 639 630 640 
3 640 642 639 
3 643 637 639 
3 644 643 642 
3 642 645 644 
3 627 624 634 
3 635 637 646 
3 647 635 646 
3 626 647 646 
3 648 626 646 
3 643 648 646 
3 637 643 646 
3 641 649 650 
3 650 640 641 
3 640 650 645 
3 645 642 640 
3 651 645 652 
3 652 644 651 
3 644 652 653 
3 654 652 645 
3 645 655 654 
3 656 644 653 
3 653 657 656 
3 658 644 656 
3 656 659 658 
3 658 648 644 
3 626 648 658 
3 658 660 626 
3 613 621 626 
3 626 661 613 
3 661 626 660 
3 662 660 658 
3 658 659 662 
3 663 662 659 
3 659 664 663 
3 665 663 664 
3 664 666 665 
3 667 665 666 
3 666 668 667 
3 669 667 668 
3 668 670 669 
3 671 669 670 
3 670 672 671 
3 673 671 672 
3 672 674 673 
3 675 673 674 
3 674 676 675 
3 677 675 676 
3 676 678 677 
3 661 660 662 
3 614 661 662 
3 613 661 614 
3 615 614 662 
3 662 663 615 
3 616 615 663 
3 663 665 616 
3 617 616 665 
3 665 667 617 
3 618 617 667 
3 667 669 618 
3 619 618 669 
3 669 671 619 
3 603 619 671 
3 671 673 603 
3 605 603 673 
3 673 675 605 
3 607 605 675 
3 675 677 607 
3 609 607 677 
3 677 679 609 
3 611 609 679 
3 664 659 656 
3 656 680 664 
3 666 664 680 
3 680 681 666 
3 668 666 681 
3 681 682 668 
3 670 668 682 
3 682 683 670 
3 672 670 683 
3 683 684 672 
3 674 672 684 
3 684 685 674 
3 676 674 685 
3 685 686 676 
3 678 676 686 
3 686 687 678 
3 688 678 687 
3 689 656 657 
3 657 690 689 
3 680 656 689 
3 689 691 680 
3 692 691 689 
3 689 693 692 
3 693 689 694 
3 695 681 680 
3 680 696 695 
3 684 683 697 
3 697 698 684 
3 687 686 699 
3 699 700 687 
3 657 653 701 
3 701 702 657 
3 680 657 702 
3 702 696 680 
3 653 652 703 
3 703 701 653 
3 652 654 704 
3 704 703 652 
3 654 705 706 
3 706 704 654 
3 654 655 705 
3 707 708 706 
3 706 705 707 
3 709 710 711 
3 611 712 713 
3 713 714 611 
3 714 713 715 
3 715 716 714 
3 717 679 677 
3 677 678 717 
3 688 717 678 
3 628 627 634 
3 634 633 628 
3 718 719 633 
3 633 632 718 
3 628 633 719 
3 719 629 628 
3 645 650 655 
3 649 705 655 
3 655 650 649 
3 705 649 707 
3 720 707 649 
3 649 641 720 
3 719 720 641 
3 641 629 719 
3 708 707 720 
3 720 721 708 
3 719 718 721 
3 721 720 719 
3 625 622 635 
3 647 626 625 
3 644 648 643 
3 627 638 623 
3 635 647 625 
3 722 723 693 
3 693 694 722 
3 694 689 690 
3 690 722 694 
3 692 693 723 
3 691 690 657 
3 657 680 691 
3 692 723 722 
3 722 691 692 
3 691 722 690 
3 580 583 582 
3 582 581 580 
3 580 724 584 
3 584 583 580 
3 724 725 578 
3 578 584 724 
3 584 578 577 
3 683 682 726 
3 726 697 683 
3 726 682 681 
3 681 695 726 
3 699 686 685 
3 685 727 699 
3 698 727 685 
3 685 684 698 
3 687 700 728 
3 728 688 687 
3 729 730 710 
3 710 731 729 
3 731 717 688 
3 688 729 731 
3 711 710 730 
3 611 714 610 
3 688 728 716 
3 716 715 732 
3 732 688 716 
3 688 732 729 
3 732 709 730 
3 730 729 732 
3 730 709 711 
3 710 709 732 
3 732 731 710 
3 732 715 713 
3 713 731 732 
3 731 713 712 
3 731 712 717 
3 712 611 679 
3 679 717 712 
3 591 733 592 
3 589 592 733 
3 733 588 589 
3 589 594 592 
3 571 570 734 
3 734 735 571 
3 570 574 736 
3 736 734 570 
3 574 576 737 
3 737 736 574 
3 737 576 578 
3 738 580 579 
3 735 734 739 
3 739 740 735 
3 734 736 741 
3 741 739 734 
3 741 736 737 
3 587 742 585 
3 587 588 743 
3 743 742 587 
3 744 591 590 
3 590 745 744 
3 745 590 746 
3 590 595 747 
3 747 746 590 
3 595 571 735 
3 735 747 595 
3 747 735 748 
3 735 740 749 
3 749 748 735 
3 740 738 750 
3 750 749 740 
3 750 738 579 
3 750 579 601 
3 601 751 750 
3 601 602 752 
3 752 751 601 
3 602 604 753 
3 753 752 602 
3 604 606 754 
3 754 753 604 
3 606 608 755 
3 755 754 606 
3 608 610 756 
3 756 755 608 
3 757 743 745 
3 758 757 745 
3 758 745 746 
3 746 759 758 
3 746 747 760 
3 760 759 746 
3 747 748 761 
3 761 760 747 
3 748 749 762 
3 762 761 748 
3 749 750 763 
3 763 762 749 
3 750 751 764 
3 764 763 750 
3 764 751 752 
3 765 766 757 
3 757 758 765 
3 766 767 743 
3 743 757 766 
3 743 767 768 
3 768 742 743 
3 742 768 769 
3 770 771 766 
3 766 765 770 
3 766 771 767 
3 768 772 769 
3 773 774 772 
3 772 775 773 
3 632 631 776 
3 776 777 632 
3 769 776 585 
3 585 742 769 
3 585 776 631 
3 767 778 779 
3 779 780 767 
3 768 767 780 
3 780 781 768 
3 780 779 782 
3 782 781 780 
3 781 782 775 
3 775 772 781 
3 775 783 784 
3 784 773 775 
3 775 782 785 
3 785 783 775 
3 782 779 786 
3 786 787 788 
3 788 785 786 
3 776 769 772 
3 789 779 778 
3 789 778 790 
3 789 790 770 
3 789 770 791 
3 789 791 786 
3 789 786 779 
3 792 784 783 
3 783 793 792 
3 793 783 785 
3 785 788 793 
3 794 788 795 
3 795 796 794 
3 796 795 787 
3 794 797 798 
3 798 788 794 
3 787 799 800 
3 800 796 787 
3 787 801 802 
3 802 799 787 
3 787 791 801 
3 791 770 803 
3 803 801 791 
3 770 765 758 
3 758 803 770 
3 803 758 804 
3 803 805 802 
3 802 801 803 
3 805 806 807 
3 807 802 805 
3 806 808 809 
3 809 807 806 
3 808 810 811 
3 811 809 808 
3 810 812 813 
3 813 811 810 
3 812 814 815 
3 815 813 812 
3 814 816 817 
3 817 815 814 
3 816 818 819 
3 819 817 816 
3 818 820 821 
3 821 819 818 
3 805 803 804 
3 805 804 759 
3 759 804 758 
3 759 760 806 
3 806 805 759 
3 760 761 808 
3 808 806 760 
3 761 762 810 
3 810 808 761 
3 762 763 812 
3 812 810 762 
3 763 764 814 
3 814 812 763 
3 764 752 816 
3 816 814 764 
3 752 753 818 
3 818 816 752 
3 753 754 820 
3 820 818 753 
3 754 755 822 
3 822 820 754 
3 822 755 756 
3 802 807 823 
3 823 799 802 
3 807 809 824 
3 824 823 807 
3 809 811 825 
3 825 824 809 
3 811 813 826 
3 826 825 811 
3 813 815 827 
3 827 826 813 
3 815 817 828 
3 828 827 815 
3 817 819 829 
3 829 828 817 
3 819 821 830 
3 830 829 819 
3 830 821 831 
3 799 832 833 
3 833 800 799 
3 799 823 834 
3 834 832 799 
3 832 834 835 
3 835 836 832 
3 836 835 837 
3 824 695 696 
3 696 823 824 
3 826 827 698 
3 698 697 826 
3 829 830 700 
3 700 699 829 
3 796 800 702 
3 702 701 796 
3 800 823 696 
3 696 702 800 
3 794 796 701 
3 701 703 794 
3 797 794 703 
3 703 704 797 
3 838 797 704 
3 704 706 838 
3 838 798 797 
3 708 839 838 
3 838 706 708 
3 840 841 842 
3 843 756 714 
3 714 844 843 
3 844 714 716 
3 716 845 844 
3 822 846 821 
3 821 820 822 
3 821 846 831 
3 772 774 777 
3 777 776 772 
3 847 718 632 
3 632 777 847 
3 777 774 773 
3 773 847 777 
3 798 793 788 
3 838 792 793 
3 793 798 838 
3 839 792 838 
3 839 848 784 
3 784 792 839 
3 848 847 773 
3 773 784 848 
3 839 708 721 
3 721 848 839 
3 718 847 848 
3 848 721 718 
3 778 767 771 
3 771 770 790 
3 786 791 787 
3 768 781 772 
3 771 790 778 
3 849 850 836 
3 836 837 849 
3 832 836 850 
3 850 833 832 
3 849 837 835 
3 833 834 823 
3 823 800 833 
3 850 849 835 
3 835 833 850 
3 833 835 834 
3 739 580 738 
3 738 740 739 
3 724 580 739 
3 739 741 724 
3 724 737 578 
3 737 724 741 
3 825 826 697 
3 697 726 825 
3 825 726 695 
3 695 824 825 
3 829 699 727 
3 727 828 829 
3 727 698 827 
3 827 828 727 
3 700 830 831 
3 831 728 700 
3 851 852 853 
3 853 841 851 
3 846 853 852 
3 852 831 846 
3 851 841 840 
3 610 714 756 
3 716 728 831 
3 854 845 716 
3 716 852 854 
3 852 716 831 
3 842 854 852 
3 852 851 842 
3 840 842 851 
3 842 841 853 
3 853 854 842 
3 845 854 853 
3 853 844 845 
3 843 844 853 
3 846 843 853 
3 756 843 846 
3 846 822 756 
3 744 733 591 
3 744 743 588 
3 588 733 744 
3 744 745 743 
3 786 785 782 
3 639 642 643 
